# xmcd CD database file
#
# Track frame offsets:
#        150
#        20680
#        34801
#        48535
#        75430
#        98101
#        124751
#        144479
#        161534
#        176898
#        199350
#        214585
#        231802
#        259610
#        278619
#
# Disc length: 4023 seconds
#
# Revision: 0
# Processed by: cddbd v1.5.2PL0 Copyright (c) Steve Scherf et al.
# Submitted via: CUERipper 2.1.5
#
DISCID=cf0fb50f
DTITLE=Willy DeVille - Live in Paris and New York
DYEAR=1993
DGENRE=
TTITLE0=Lilly's Daddy's Cadillac
TTITLE1=This Must Be the Night
TTITLE2=Savoir Faire
TTITLE3=Cadillac Walk
TTITLE4=Bamboo Road
TTITLE5=Mixed Up, Shook Up Girl
TTITLE6=Heart and Soul
TTITLE7=Can't Do Without It
TTITLE8=Maybe Tomorrow
TTITLE9=I Must Be Dreaming
TTITLE10=Heaven Stood Still
TTITLE11=Demasiado Corazón
TTITLE12=Spanish Stroll
TTITLE13=Stand by Me
TTITLE14=Hey! Joe
EXTD=
EXTT0=
EXTT1=
EXTT2=
EXTT3=
EXTT4=
EXTT5=
EXTT6=
EXTT7=
EXTT8=
EXTT9=
EXTT10=
EXTT11=
EXTT12=
EXTT13=
EXTT14=
PLAYORDER=
